<svg xmlns="http://www.w3.org/2000/svg" viewBox="0 0 1200 750" width="1200" height="750" role="img" aria-label="Marcador de posición de la captura del visor 3D">
  <!-- PLACEHOLDER: reemplazar por la captura real del visor 3D (ver README de la landing). -->
  <rect width="1200" height="750" fill="#0A1A22"/>
  <g stroke="#1d3742" stroke-width="1">
    <path d="M0 150h1200M0 300h1200M0 450h1200M0 600h1200M200 0v750M400 0v750M600 0v750M800 0v750M1000 0v750"/>
  </g>
  <!-- insinuación de un muro con montantes y una abertura -->
  <g transform="translate(250 190)">
    <rect x="0" y="0" width="700" height="24" fill="#1BB6A4" opacity=".85"/>
    <rect x="0" y="356" width="700" height="24" fill="#1BB6A4" opacity=".85"/>
    <g fill="#8AA0A8" opacity=".55">
      <rect x="30" y="24" width="16" height="332"/><rect x="130" y="24" width="16" height="332"/>
      <rect x="230" y="24" width="16" height="332"/><rect x="560" y="24" width="16" height="332"/>
      <rect x="654" y="24" width="16" height="332"/>
    </g>
    <g fill="#E85D2A" opacity=".9">
      <rect x="300" y="24" width="18" height="332"/><rect x="470" y="24" width="18" height="332"/>
      <rect x="300" y="120" width="188" height="20"/>
    </g>
    <g fill="#8AA0A8" opacity=".35">
      <rect x="330" y="24" width="12" height="96"/><rect x="410" y="24" width="12" height="96"/>
    </g>
  </g>
  <g font-family="monospace" fill="#5D7078" font-size="20">
    <text x="600" y="600" text-anchor="middle">captura del visor 3D — reemplazar</text>
    <text x="600" y="632" text-anchor="middle" font-size="15">public/hero-app.png · 1200 × 750</text>
  </g>
</svg>
